<svg viewBox="0 0 395.52 97.31008258286833" height="97.31008258286833" width="395.52"><g><svg viewBox="0 0 395.52 97.31008258286833" height="97.31008258286833" width="395.52"><g><svg viewBox="0 0 395.52 97.31008258286833" height="97.31008258286833" width="395.52"><g><svg viewBox="0 0 395.52 97.31008258286833" height="97.31008258286833" width="395.52"><g><rect width="75.54432" height="5.847022688785167" y="85.80295215621975" fill="#30017e" data-fill-palette-color="tertiary"></rect><rect width="75.54432" height="5.847022688785167" y="85.80295215621975" x="319.97568" fill="#30017e" data-fill-palette-color="tertiary"></rect></g><g><svg viewBox="0 0 395.52 64.83650230111768" height="64.83650230111768" width="395.52"><g transform="matrix(1,0,0,1,0,0)"><svg width="395.52" viewBox="1.7000000476837158 -37.099998474121094 228.13999938964844 37.39999771118164" height="64.83650230111768" data-palette-color="#30017e"><path d="M15.45 0L11.15 0 1.7-36.8 5.8-36.8 13.7-5.45 22.8-36.8 26.8-36.8 35.85-5.45 43.75-36.8 47.85-36.8 38.4 0 34.1 0 24.8-31.25 15.45 0ZM63.8 0.25L63.8 0.25Q60.3 0.3 58-0.83 55.7-1.95 54.4-4.25 53.1-6.55 52.55-10.1 52-13.65 52-18.5L52-18.5Q52-23.15 52.57-26.65 53.15-30.15 54.55-32.48 55.95-34.8 58.37-35.95 60.8-37.1 64.45-37.1L64.45-37.1Q66.4-37.1 68.5-36.95 70.6-36.8 72.6-36.5 74.6-36.2 76.3-35.8L76.3-35.8 76.3-32.8Q75.3-32.95 73.5-33.13 71.7-33.3 69.47-33.4 67.25-33.5 65.05-33.5L65.05-33.5Q61.45-33.5 59.47-32.02 57.5-30.55 56.72-27.23 55.95-23.9 55.95-18.45L55.95-18.45Q55.95-14.05 56.37-11.15 56.8-8.25 57.8-6.55 58.8-4.85 60.52-4.13 62.25-3.4 64.9-3.4L64.9-3.4Q67.25-3.4 69.75-4 72.25-4.6 74-5.3L74-5.3 74-16.15 65.1-16.15 65.1-19.1Q66.05-19.25 67.4-19.35 68.75-19.45 70.27-19.53 71.8-19.6 73.35-19.6L73.35-19.6Q74.65-19.6 75.8-19.58 76.95-19.55 77.8-19.4L77.8-19.4 77.8 0 74.9 0 74.3-2.6Q72.5-1.7 69.72-0.75 66.95 0.2 63.8 0.25ZM96 0.3L96 0.3Q94.9 0.3 93.37 0.23 91.85 0.15 90.25 0.03 88.65-0.1 87.22-0.25 85.8-0.4 84.85-0.6L84.85-0.6 84.85-3.65Q86.1-3.55 87.9-3.45 89.7-3.35 91.77-3.3 93.85-3.25 95.85-3.25L95.85-3.25Q98.1-3.25 99.9-3.7 101.7-4.15 102.77-5.35 103.85-6.55 103.85-8.8L103.85-8.8 103.85-11.3Q103.85-13.85 102.55-15.18 101.25-16.5 98.35-16.5L98.35-16.5 94.4-16.5Q89.85-16.5 87.27-18.5 84.7-20.5 84.7-25.4L84.7-25.4 84.7-27.5Q84.7-32.7 87.5-34.9 90.3-37.1 95.4-37.1L95.4-37.1Q97-37.1 99-36.93 101-36.75 102.87-36.52 104.75-36.3 106-36.05L106-36.05 106-33Q103.8-33.2 101.02-33.35 98.25-33.5 95.8-33.5L95.8-33.5Q93.55-33.5 91.9-32.98 90.25-32.45 89.37-31.13 88.5-29.8 88.5-27.35L88.5-27.35 88.5-25.65Q88.5-22.6 90.1-21.45 91.7-20.3 94.55-20.3L94.55-20.3 98.8-20.3Q101.85-20.3 103.8-19.2 105.75-18.1 106.7-16.18 107.65-14.25 107.65-11.75L107.65-11.75 107.65-8.9Q107.65-5.2 106.07-3.2 104.5-1.2 101.87-0.45 99.25 0.3 96 0.3ZM126.74 0L122.74 0 122.74-33.2 111.39-33.2 111.39-36.8 138.09-36.8 138.09-33.2 126.74-33.2 126.74 0ZM155.79 0.3L155.79 0.3Q152.24 0.3 149.57-0.38 146.89-1.05 145.12-2.95 143.34-4.85 142.47-8.55 141.59-12.25 141.59-18.25L141.59-18.25Q141.59-24.25 142.49-27.98 143.39-31.7 145.19-33.68 146.99-35.65 149.64-36.38 152.29-37.1 155.79-37.1L155.79-37.1Q159.39-37.1 162.07-36.38 164.74-35.65 166.52-33.68 168.29-31.7 169.14-27.98 169.99-24.25 169.99-18.25L169.99-18.25Q169.99-12.25 169.12-8.55 168.24-4.85 166.47-2.95 164.69-1.05 162.04-0.38 159.39 0.3 155.79 0.3ZM155.79-3.25L155.79-3.25Q158.59-3.25 160.54-3.8 162.49-4.35 163.72-5.93 164.94-7.5 165.49-10.45 166.04-13.4 166.04-18.25L166.04-18.25Q166.04-23.3 165.47-26.35 164.89-29.4 163.67-30.95 162.44-32.5 160.52-33 158.59-33.5 155.79-33.5L155.79-33.5Q153.19-33.5 151.27-33 149.34-32.5 148.07-30.95 146.79-29.4 146.17-26.35 145.54-23.3 145.54-18.25L145.54-18.25Q145.54-13.4 146.07-10.45 146.59-7.5 147.79-5.93 148.99-4.35 150.97-3.8 152.94-3.25 155.79-3.25ZM180.79 0L176.79 0 176.79-36.8 191.29-36.8Q193.09-36.8 194.79-36.38 196.49-35.95 197.86-34.8 199.24-33.65 200.04-31.53 200.84-29.4 200.84-25.95L200.84-25.95Q200.84-22.95 200.19-21.03 199.54-19.1 198.49-17.98 197.44-16.85 196.21-16.32 194.99-15.8 193.84-15.6L193.84-15.6 201.39 0 197.34 0 190.19-15.05Q189.39-15.05 188.19-15.1 186.99-15.15 185.64-15.15 184.29-15.15 183.01-15.2 181.74-15.25 180.79-15.25L180.79-15.25 180.79 0ZM180.79-33.2L180.79-18.3 190.69-18.3Q191.99-18.3 193.09-18.6 194.19-18.9 195.04-19.73 195.89-20.55 196.39-22.05 196.89-23.55 196.89-25.95L196.89-25.95Q196.89-28.25 196.39-29.68 195.89-31.1 195.01-31.88 194.14-32.65 193.04-32.93 191.94-33.2 190.69-33.2L190.69-33.2 180.79-33.2ZM214.99 0.2L214.99 0.2Q213.79 0.2 212.44-0.03 211.09-0.25 209.89-0.95 208.69-1.65 207.94-3.08 207.19-4.5 207.19-6.95L207.19-6.95 207.19-29.4Q207.19-31.55 207.81-32.98 208.44-34.4 209.49-35.23 210.54-36.05 211.84-36.43 213.14-36.8 214.44-36.8L214.44-36.8Q217.54-36.75 220.19-36.68 222.84-36.6 225.21-36.52 227.59-36.45 229.84-36.35L229.84-36.35 229.84-33.15 215.44-33.15Q213.49-33.15 212.34-32.1 211.19-31.05 211.19-28.75L211.19-28.75 211.19-20.05 227.64-19.8 227.64-16.75 211.19-16.5 211.19-7.85Q211.19-6 211.81-5.05 212.44-4.1 213.49-3.8 214.54-3.5 215.64-3.5L215.64-3.5 229.84-3.5 229.84-0.3Q227.54-0.15 225.01-0.05 222.49 0.05 219.96 0.1 217.44 0.15 214.99 0.2Z" opacity="1" transform="matrix(1,0,0,1,0,0)" fill="#30017e" class="undefined-text-0" data-fill-palette-color="primary" id="text-0"></path></svg></g></svg></g><g transform="matrix(1,0,0,1,75.54432,80.14284441835633)"><svg viewBox="0 0 244.43135999999998 17.167238164512003" height="17.167238164512003" width="244.43135999999998"><g transform="matrix(1,0,0,1,8,0)"><svg width="228.43135999999998" viewBox="5.050000190734863 -38.2599983215332 515.5 38.75" height="17.167238164512003" data-palette-color="#96a2fb"><path d="M31.01-35.69L31.01 0 28.49 0 7.35-31.69 7.15-31.69Q7.45-26.03 7.45-23.14L7.45-23.14 7.45 0 5.05 0 5.05-35.69 7.54-35.69 28.66-4.05 28.81-4.05Q28.59-8.45 28.59-12.4L28.59-12.4 28.59-35.69 31.01-35.69ZM51.22 0.49L51.22 0.49Q45.43 0.49 42.2-3.08 38.96-6.64 38.96-13.06L38.96-13.06Q38.96-19.41 42.09-23.23 45.21-27.05 50.51-27.05L50.51-27.05Q55.2-27.05 57.91-23.78 60.62-20.51 60.62-14.89L60.62-14.89 60.62-12.94 41.5-12.94Q41.55-7.47 44.05-4.59 46.56-1.71 51.22-1.71L51.22-1.71Q53.49-1.71 55.21-2.03 56.93-2.34 59.57-3.39L59.57-3.39 59.57-1.2Q57.32-0.22 55.42 0.13 53.51 0.49 51.22 0.49ZM50.51-24.9L50.51-24.9Q46.68-24.9 44.36-22.38 42.04-19.85 41.65-15.09L41.65-15.09 58.05-15.09Q58.05-19.7 56.05-22.3 54.05-24.9 50.51-24.9ZM91.69 0L89.16 0 83.34-17.75Q82.78-19.56 81.9-23.05L81.9-23.05 81.76-23.05 81.25-21.24 80.15-17.7 74.24 0 71.85 0 64.25-26.54 66.84-26.54 71.09-11.16Q72.58-5.44 73.04-2.76L73.04-2.76 73.19-2.76Q74.63-8.47 75.29-10.35L75.29-10.35 80.76-26.54 82.95-26.54 88.15-10.4Q89.91-4.66 90.3-2.81L90.3-2.81 90.45-2.81Q90.64-4.39 92.4-11.3L92.4-11.3 96.45-26.54 98.9-26.54 91.69 0ZM137.2-2.29L137.2 0 117.69 0 117.69-35.69 137.2-35.69 137.2-33.4 120.18-33.4 120.18-19.9 136.24-19.9 136.24-17.6 120.18-17.6 120.18-2.29 137.2-2.29ZM155.11-27.05L155.11-27.05Q156.8-27.05 158.73-26.71L158.73-26.71 158.26-24.39Q156.6-24.8 154.82-24.8L154.82-24.8Q151.43-24.8 149.26-21.92 147.08-19.04 147.08-14.65L147.08-14.65 147.08 0 144.67 0 144.67-26.54 146.72-26.54 146.96-21.75 147.13-21.75Q148.77-24.68 150.62-25.87 152.48-27.05 155.11-27.05ZM182.02 0L180.23 0 179.62-4.2 179.43-4.2Q177.43-1.64 175.31-0.57 173.2 0.49 170.32 0.49L170.32 0.49Q166.42 0.49 164.24-1.51 162.07-3.52 162.07-7.06L162.07-7.06Q162.07-10.94 165.3-13.09 168.54-15.23 174.67-15.36L174.67-15.36 179.72-15.5 179.72-17.26Q179.72-21.04 178.18-22.97 176.65-24.9 173.23-24.9L173.23-24.9Q169.54-24.9 165.59-22.85L165.59-22.85 164.68-24.95Q169.05-27 173.32-27L173.32-27Q177.69-27 179.86-24.73 182.02-22.46 182.02-17.65L182.02-17.65 182.02 0ZM170.47-1.71L170.47-1.71Q174.72-1.71 177.17-4.14 179.62-6.57 179.62-10.89L179.62-10.89 179.62-13.5 174.99-13.31Q169.39-13.04 167.01-11.56 164.63-10.08 164.63-6.96L164.63-6.96Q164.63-4.47 166.16-3.09 167.69-1.71 170.47-1.71ZM225.54-13.31L225.54-13.31Q225.54-6.81 222.39-3.16 219.24 0.49 213.7 0.49L213.7 0.49Q210.21 0.49 207.55-1.2 204.89-2.88 203.47-6.03 202.06-9.18 202.06-13.31L202.06-13.31Q202.06-19.8 205.2-23.43 208.35-27.05 213.85-27.05L213.85-27.05Q219.32-27.05 222.43-23.38 225.54-19.7 225.54-13.31ZM204.59-13.31L204.59-13.31Q204.59-7.84 207-4.77 209.4-1.71 213.8-1.71L213.8-1.71Q218.19-1.71 220.6-4.77 223-7.84 223-13.31L223-13.31Q223-18.8 220.57-21.83 218.14-24.85 213.75-24.85L213.75-24.85Q209.36-24.85 206.97-21.84 204.59-18.82 204.59-13.31ZM242.75-26.54L242.75-24.44 236.5-24.44 236.5 0 234.08 0 234.08-24.44 229.15-24.44 229.15-25.85 234.08-26.76 234.08-28.81Q234.08-33.69 235.88-35.97 237.67-38.26 241.75-38.26L241.75-38.26Q243.95-38.26 246.14-37.6L246.14-37.6 245.58-35.5Q243.63-36.11 241.7-36.11L241.7-36.11Q238.87-36.11 237.69-34.44 236.5-32.76 236.5-29L236.5-29 236.5-26.54 242.75-26.54ZM281.17-9.2L281.17-9.2Q281.17-4.74 277.89-2.12 274.61 0.49 269.16 0.49L269.16 0.49Q262.62 0.49 259.13-0.95L259.13-0.95 259.13-3.44Q262.99-1.81 268.97-1.81L268.97-1.81Q273.36-1.81 275.94-3.82 278.51-5.83 278.51-9.11L278.51-9.11Q278.51-11.13 277.66-12.46 276.8-13.79 274.87-14.89 272.95-15.99 269.21-17.26L269.21-17.26Q263.74-19.14 261.65-21.33 259.57-23.51 259.57-27.15L259.57-27.15Q259.57-31.15 262.7-33.68 265.84-36.21 270.77-36.21L270.77-36.21Q275.8-36.21 280.22-34.3L280.22-34.3 279.32-32.15Q274.87-34.01 270.82-34.01L270.82-34.01Q266.87-34.01 264.52-32.18 262.18-30.35 262.18-27.2L262.18-27.2Q262.18-25.22 262.9-23.95 263.62-22.68 265.26-21.67 266.89-20.65 270.87-19.24L270.87-19.24Q275.05-17.8 277.15-16.44 279.24-15.09 280.21-13.37 281.17-11.65 281.17-9.2ZM295.11-1.66L295.11-1.66Q297.41-1.66 299.12-2.05L299.12-2.05 299.12-0.1Q297.36 0.49 295.06 0.49L295.06 0.49Q291.55 0.49 289.87-1.39 288.2-3.27 288.2-7.3L288.2-7.3 288.2-24.44 284.27-24.44 284.27-25.85 288.2-26.95 289.42-32.96 290.67-32.96 290.67-26.54 298.46-26.54 298.46-24.44 290.67-24.44 290.67-7.64Q290.67-4.59 291.74-3.13 292.82-1.66 295.11-1.66ZM315.3-27.05L315.3-27.05Q316.98-27.05 318.91-26.71L318.91-26.71 318.45-24.39Q316.79-24.8 315.01-24.8L315.01-24.8Q311.61-24.8 309.44-21.92 307.27-19.04 307.27-14.65L307.27-14.65 307.27 0 304.85 0 304.85-26.54 306.9-26.54 307.15-21.75 307.32-21.75Q308.95-24.68 310.81-25.87 312.66-27.05 315.3-27.05ZM335.02 0.49L335.02 0.49Q329.24 0.49 326-3.08 322.77-6.64 322.77-13.06L322.77-13.06Q322.77-19.41 325.89-23.23 329.02-27.05 334.32-27.05L334.32-27.05Q339-27.05 341.71-23.78 344.42-20.51 344.42-14.89L344.42-14.89 344.42-12.94 325.31-12.94Q325.36-7.47 327.86-4.59 330.36-1.71 335.02-1.71L335.02-1.71Q337.29-1.71 339.02-2.03 340.74-2.34 343.37-3.39L343.37-3.39 343.37-1.2Q341.13-0.22 339.22 0.13 337.32 0.49 335.02 0.49ZM334.32-24.9L334.32-24.9Q330.48-24.9 328.16-22.38 325.84-19.85 325.45-15.09L325.45-15.09 341.86-15.09Q341.86-19.7 339.86-22.3 337.86-24.9 334.32-24.9ZM369.64 0L367.86 0 367.25-4.2 367.05-4.2Q365.05-1.64 362.94-0.57 360.83 0.49 357.95 0.49L357.95 0.49Q354.04 0.49 351.87-1.51 349.69-3.52 349.69-7.06L349.69-7.06Q349.69-10.94 352.93-13.09 356.16-15.23 362.29-15.36L362.29-15.36 367.35-15.5 367.35-17.26Q367.35-21.04 365.81-22.97 364.27-24.9 360.85-24.9L360.85-24.9Q357.16-24.9 353.21-22.85L353.21-22.85 352.31-24.95Q356.68-27 360.95-27L360.95-27Q365.32-27 367.48-24.73 369.64-22.46 369.64-17.65L369.64-17.65 369.64 0ZM358.09-1.71L358.09-1.71Q362.34-1.71 364.79-4.14 367.25-6.57 367.25-10.89L367.25-10.89 367.25-13.5 362.61-13.31Q357.02-13.04 354.64-11.56 352.26-10.08 352.26-6.96L352.26-6.96Q352.26-4.47 353.78-3.09 355.31-1.71 358.09-1.71ZM385.24-1.66L385.24-1.66Q387.53-1.66 389.24-2.05L389.24-2.05 389.24-0.1Q387.48 0.49 385.19 0.49L385.19 0.49Q381.67 0.49 380-1.39 378.33-3.27 378.33-7.3L378.33-7.3 378.33-24.44 374.4-24.44 374.4-25.85 378.33-26.95 379.55-32.96 380.79-32.96 380.79-26.54 388.58-26.54 388.58-24.44 380.79-24.44 380.79-7.64Q380.79-4.59 381.87-3.13 382.94-1.66 385.24-1.66ZM446.88-35.69L437.02 0 434.96 0 427.13-27.54Q426.15-30.93 425.66-33.11L425.66-33.11Q425.27-30.98 424.55-28.22 423.83-25.46 416.68 0L416.68 0 414.58 0 404.76-35.69 407.38-35.69 413.63-12.7Q413.99-11.3 414.31-10.12 414.63-8.94 414.88-7.9 415.14-6.86 415.35-5.9 415.56-4.93 415.73-3.96L415.73-3.96Q416.31-7.28 418.22-14.04L418.22-14.04 424.32-35.69 427.08-35.69 434.23-10.84Q435.48-6.54 436.01-3.91L436.01-3.91Q436.33-5.66 436.83-7.64 437.33-9.62 444.36-35.69L444.36-35.69 446.88-35.69ZM463.28 0.49L463.28 0.49Q457.5 0.49 454.26-3.08 451.03-6.64 451.03-13.06L451.03-13.06Q451.03-19.41 454.15-23.23 457.28-27.05 462.57-27.05L462.57-27.05Q467.26-27.05 469.97-23.78 472.68-20.51 472.68-14.89L472.68-14.89 472.68-12.94 453.57-12.94Q453.61-7.47 456.12-4.59 458.62-1.71 463.28-1.71L463.28-1.71Q465.55-1.71 467.27-2.03 469-2.34 471.63-3.39L471.63-3.39 471.63-1.2Q469.39-0.22 467.48 0.13 465.58 0.49 463.28 0.49ZM462.57-24.9L462.57-24.9Q458.74-24.9 456.42-22.38 454.1-19.85 453.71-15.09L453.71-15.09 470.12-15.09Q470.12-19.7 468.12-22.3 466.11-24.9 462.57-24.9ZM497.9 0L496.12 0 495.51-4.2 495.31-4.2Q493.31-1.64 491.2-0.57 489.09 0.49 486.2 0.49L486.2 0.49Q482.3 0.49 480.13-1.51 477.95-3.52 477.95-7.06L477.95-7.06Q477.95-10.94 481.19-13.09 484.42-15.23 490.55-15.36L490.55-15.36 495.6-15.5 495.6-17.26Q495.6-21.04 494.07-22.97 492.53-24.9 489.11-24.9L489.11-24.9Q485.42-24.9 481.47-22.85L481.47-22.85 480.57-24.95Q484.94-27 489.21-27L489.21-27Q493.58-27 495.74-24.73 497.9-22.46 497.9-17.65L497.9-17.65 497.9 0ZM486.35-1.71L486.35-1.71Q490.6-1.71 493.05-4.14 495.51-6.57 495.51-10.89L495.51-10.89 495.51-13.5 490.87-13.31Q485.28-13.04 482.9-11.56 480.52-10.08 480.52-6.96L480.52-6.96Q480.52-4.47 482.04-3.09 483.57-1.71 486.35-1.71ZM516.94-27.05L516.94-27.05Q518.62-27.05 520.55-26.71L520.55-26.71 520.09-24.39Q518.43-24.8 516.65-24.8L516.65-24.8Q513.25-24.8 511.08-21.92 508.91-19.04 508.91-14.65L508.91-14.65 508.91 0 506.49 0 506.49-26.54 508.54-26.54 508.79-21.75 508.96-21.75Q510.59-24.68 512.45-25.87 514.3-27.05 516.94-27.05Z" opacity="1" transform="matrix(1,0,0,1,0,0)" fill="#96a2fb" class="undefined-text-1" data-fill-palette-color="secondary" id="text-1"></path></svg></g></svg></g></svg></g></svg></g><g></g></svg></g><defs></defs></svg>