<svg width="169" height="45" viewBox="0 0 169 45" fill="none" xmlns="http://www.w3.org/2000/svg">
<g clip-path="url(#clip0_2501_2)">
<g clip-path="url(#clip1_2501_2)">
<g clip-path="url(#clip2_2501_2)">
<g clip-path="url(#clip3_2501_2)">
<path d="M32.279 39.6786H0V42.3825H32.279V39.6786Z" fill="white"/>
<path d="M169 39.6786H136.721V42.3825H169V39.6786Z" fill="white"/>
<g clip-path="url(#clip4_2501_2)">
<g clip-path="url(#clip5_2501_2)">
<path d="M10.1889 29.7424H7.00372L0.00372314 0.240504H3.04076L8.89261 25.3733L15.6334 0.240504H18.5963L25.3 25.3733L31.1519 0.240504H34.1889L27.1889 29.7424H24.0037L17.1148 4.68984L10.1889 29.7424ZM46.0037 29.9429C44.2753 29.9696 42.8432 29.681 41.7074 29.077C40.5716 28.4785 39.6827 27.5645 39.0408 26.3353C38.3988 25.106 37.942 23.5428 37.6704 21.6454C37.3988 19.7481 37.263 17.5034 37.263 14.9113C37.263 12.4261 37.4037 10.2482 37.6852 8.37759C37.9716 6.50699 38.4605 4.94906 39.1519 3.70377C39.8432 2.46384 40.7864 1.53656 41.9815 0.921934C43.1815 0.30731 44.6827 0 46.4852 0C47.4482 0 48.4482 0.0400823 49.4852 0.120251C50.5222 0.200419 51.5346 0.320672 52.5222 0.481009C53.5099 0.641345 54.4235 0.828405 55.263 1.04219V3.44724C54.7692 3.36707 54.0778 3.27888 53.1889 3.18268C52.3 3.09182 51.305 3.01967 50.2037 2.96622C49.1074 2.91278 48.0161 2.88606 46.9297 2.88606C45.1519 2.88606 43.7741 3.28155 42.7963 4.07255C41.8235 4.8582 41.1445 6.13822 40.7593 7.91261C40.379 9.69235 40.1889 12.0386 40.1889 14.9514C40.1889 17.303 40.2926 19.2538 40.5 20.8037C40.7124 22.3536 41.0655 23.5828 41.5593 24.4914C42.0531 25.4 42.7247 26.0467 43.5741 26.4315C44.4284 26.8216 45.5099 27.0167 46.8185 27.0167C47.979 27.0167 49.1766 26.8564 50.4111 26.5357C51.6457 26.215 52.6951 25.8676 53.5593 25.4935V16.7953H46.9667V14.4303C47.4358 14.3501 48.0037 14.2833 48.6704 14.2299C49.3371 14.1764 50.0457 14.1283 50.7963 14.0856C51.5519 14.0482 52.3124 14.0295 53.0778 14.0295C53.7198 14.0295 54.3247 14.0348 54.8926 14.0455C55.4605 14.0615 55.9543 14.1096 56.3741 14.1898V29.7424H54.226L53.7815 27.6581C52.8926 28.1391 51.7618 28.6334 50.3889 29.1412C49.021 29.6489 47.5593 29.9161 46.0037 29.9429ZM69.8556 29.9829C69.3124 29.9829 68.663 29.9642 67.9074 29.9268C67.1568 29.8841 66.3864 29.8306 65.5963 29.7665C64.8062 29.697 64.0581 29.6222 63.3519 29.542C62.6506 29.4618 62.0655 29.3683 61.5963 29.2614V26.8163C62.2136 26.8697 62.9667 26.9232 63.8556 26.9766C64.7445 27.0301 65.7 27.0702 66.7222 27.0969C67.7494 27.1236 68.7568 27.137 69.7445 27.137C70.8556 27.137 71.8556 27.0167 72.7445 26.7762C73.6334 26.5357 74.342 26.0948 74.8704 25.4534C75.4037 24.8121 75.6704 23.8902 75.6704 22.6876V20.6834C75.6704 19.3206 75.3494 18.2837 74.7074 17.5729C74.0655 16.8674 73.0284 16.5147 71.5963 16.5147H68.6704C66.4235 16.5147 64.663 15.9802 63.3889 14.9113C62.1198 13.8424 61.4852 11.9985 61.4852 9.37969V7.69616C61.4852 4.91699 62.1766 2.9395 63.5593 1.7637C64.942 0.587898 66.8926 0 69.4111 0C70.2013 0 71.0901 0.0454272 72.0778 0.136285C73.0655 0.232487 74.021 0.34205 74.9445 0.464975C75.8729 0.582555 76.6457 0.708153 77.263 0.841767V3.2869C76.1766 3.18001 74.9469 3.08648 73.5741 3.00631C72.2062 2.92614 70.9173 2.88606 69.7074 2.88606C68.5963 2.88606 67.6334 3.02502 66.8185 3.30293C66.0037 3.58619 65.379 4.08057 64.9445 4.78605C64.5148 5.49687 64.3 6.50699 64.3 7.81641V9.17927C64.3 10.8094 64.6951 11.9317 65.4852 12.5463C66.2753 13.161 67.3741 13.4683 68.7815 13.4683H71.9297C73.4358 13.4683 74.6704 13.7622 75.6334 14.3501C76.5963 14.938 77.3124 15.7451 77.7815 16.7712C78.2506 17.8027 78.4852 18.9865 78.4852 20.3227V22.6075C78.4852 24.5849 78.0951 26.1081 77.3148 27.1771C76.5395 28.246 75.5025 28.9808 74.2037 29.3817C72.9099 29.7825 71.4605 29.9829 69.8556 29.9829ZM92.626 29.7424H89.663V3.12656H81.2556V0.240504H101.033V3.12656H92.626V29.7424ZM114.144 29.9829C112.391 29.9829 110.856 29.8012 109.537 29.4378C108.214 29.0797 107.115 28.3929 106.241 27.3775C105.362 26.362 104.707 24.8655 104.278 22.888C103.843 20.9106 103.626 18.3185 103.626 15.1117C103.626 11.905 103.848 9.30487 104.293 7.31135C104.737 5.32317 105.404 3.79998 106.293 2.74175C107.182 1.68888 108.28 0.967362 109.589 0.57721C110.898 0.192402 112.416 0 114.144 0C115.922 0 117.473 0.192402 118.796 0.57721C120.115 0.967362 121.214 1.68888 122.093 2.74175C122.967 3.79998 123.614 5.32317 124.033 7.31135C124.453 9.30487 124.663 11.905 124.663 15.1117C124.663 18.3185 124.448 20.9106 124.019 22.888C123.584 24.8655 122.93 26.362 122.056 27.3775C121.177 28.3929 120.083 29.0797 118.774 29.4378C117.465 29.8012 115.922 29.9829 114.144 29.9829ZM114.144 27.137C115.527 27.137 116.7 26.99 117.663 26.696C118.626 26.4021 119.411 25.8329 120.019 24.9885C120.621 24.1494 121.058 22.9415 121.33 21.3649C121.601 19.7882 121.737 17.7038 121.737 15.1117C121.737 12.4127 121.596 10.2482 121.315 8.61809C121.028 6.988 120.584 5.75875 119.982 4.93035C119.374 4.10194 118.596 3.55413 117.648 3.2869C116.695 3.01967 115.527 2.88606 114.144 2.88606C112.861 2.88606 111.744 3.01967 110.796 3.2869C109.843 3.55413 109.053 4.10194 108.426 4.93035C107.794 5.75875 107.325 6.988 107.019 8.61809C106.707 10.2482 106.552 12.4127 106.552 15.1117C106.552 17.7038 106.683 19.7882 106.944 21.3649C107.201 22.9415 107.626 24.1494 108.219 24.9885C108.811 25.8329 109.596 26.4021 110.574 26.696C111.547 26.99 112.737 27.137 114.144 27.137ZM132.663 29.7424H129.7V0.240504H140.441C141.33 0.240504 142.194 0.352738 143.033 0.57721C143.873 0.807025 144.631 1.22925 145.307 1.84387C145.989 2.45849 146.527 3.33233 146.922 4.46537C147.317 5.60376 147.515 7.09489 147.515 8.93876C147.515 10.5421 147.354 11.8569 147.033 12.883C146.712 13.9145 146.293 14.7296 145.774 15.3282C145.256 15.9321 144.693 16.3757 144.085 16.659C143.483 16.9369 142.898 17.1293 142.33 17.2362L147.922 29.7424H144.922L139.626 17.6771C139.231 17.6771 138.737 17.6637 138.144 17.637C137.552 17.6103 136.922 17.5969 136.256 17.5969C135.589 17.5969 134.94 17.5836 134.307 17.5569C133.68 17.5301 133.132 17.5168 132.663 17.5168V29.7424ZM132.663 3.12656V15.0716H139.996C140.638 15.0716 141.231 14.9915 141.774 14.8311C142.317 14.6708 142.799 14.3688 143.219 13.9252C143.638 13.487 143.972 12.867 144.219 12.0653C144.465 11.2636 144.589 10.2215 144.589 8.93876C144.589 7.70952 144.465 6.71276 144.219 5.94849C143.972 5.18956 143.631 4.60166 143.196 4.18478C142.767 3.77325 142.28 3.49266 141.737 3.34302C141.194 3.19871 140.614 3.12656 139.996 3.12656H132.663ZM157.996 29.9028C157.404 29.9028 156.774 29.8413 156.107 29.7184C155.441 29.6008 154.811 29.355 154.219 28.9808C153.626 28.6067 153.144 28.0375 152.774 27.2733C152.404 26.5143 152.219 25.4802 152.219 24.1707V6.17296C152.219 5.02388 152.372 4.0672 152.678 3.30293C152.989 2.54401 153.404 1.94274 153.922 1.49915C154.441 1.06089 155.021 0.740219 155.663 0.537126C156.305 0.339378 156.947 0.240504 157.589 0.240504C159.12 0.267227 160.54 0.299294 161.848 0.336705C163.157 0.379462 164.396 0.422218 165.567 0.464975C166.742 0.502386 167.885 0.547817 168.996 0.601262V3.16665H158.33C157.367 3.16665 156.601 3.44724 156.033 4.00842C155.465 4.56959 155.182 5.4648 155.182 6.69405V13.6687L167.367 13.8691V16.3142L155.182 16.5147V23.4492C155.182 24.438 155.335 25.1862 155.641 25.6939C155.952 26.2017 156.367 26.5357 156.885 26.696C157.404 26.8564 157.935 26.9365 158.478 26.9365H168.996V29.5019C167.861 29.5821 166.668 29.6489 165.419 29.7024C164.174 29.7558 162.927 29.7959 161.678 29.8226C160.433 29.8493 159.206 29.8761 157.996 29.9028Z" fill="white"/>
</g>
</g>
<g clip-path="url(#clip6_2501_2)">
<g clip-path="url(#clip7_2501_2)">
<path d="M40.6225 37.5877V44.8996H40.1455L36.1437 38.4072H36.1058C36.1437 39.1803 36.1626 39.7641 36.1626 40.1589V44.8996H35.7083V37.5877H36.1797L40.1776 44.0699H40.206C40.1783 43.4689 40.1644 42.8987 40.1644 42.3592V37.5877H40.6225ZM44.4482 45C43.7175 45 43.1484 44.7562 42.7407 44.2686C42.3319 43.7824 42.1274 43.1008 42.1274 42.224C42.1274 41.3567 42.3249 40.6622 42.7199 40.1404C43.1137 39.6187 43.645 39.3578 44.3138 39.3578C44.9057 39.3578 45.3726 39.5811 45.7146 40.0277C46.0566 40.4744 46.2276 41.0815 46.2276 41.8491V42.2486H42.6082C42.6146 42.9957 42.7755 43.5659 43.091 43.9592C43.4077 44.3526 43.8601 44.5493 44.4482 44.5493C44.7347 44.5493 44.9865 44.5274 45.2035 44.4837C45.4206 44.4414 45.6957 44.3485 46.0289 44.2051V44.6538C45.7449 44.7876 45.4831 44.8784 45.2433 44.9262C45.0022 44.9754 44.7372 45 44.4482 45ZM44.3138 39.7983C43.8305 39.7983 43.4424 39.9704 43.1496 40.3146C42.8569 40.6601 42.6859 41.158 42.6366 41.8081H45.7411C45.7411 41.1784 45.6149 40.6861 45.3625 40.331C45.1101 39.9758 44.7606 39.7983 44.3138 39.7983ZM52.1091 44.8996H51.6302L50.5285 41.2631C50.4578 41.0159 50.367 40.654 50.2559 40.1773H50.2294L50.1329 40.5481L49.9246 41.2734L48.8059 44.8996H48.3534L46.9148 39.4623H47.4051L48.2096 42.6132C48.3976 43.3945 48.5207 43.9681 48.5787 44.3342H48.6071C48.7888 43.5543 48.9213 43.036 49.0046 42.7792L50.0401 39.4623H50.4547L51.439 42.7689C51.6611 43.5529 51.7968 44.0712 51.846 44.3239H51.8744C51.8984 44.1081 52.0214 43.5283 52.2435 42.5846L53.0102 39.4623H53.474L52.1091 44.8996ZM60.7241 44.4305V44.8996H57.0309V37.5877H60.7241V38.0569H57.5022V40.8227H60.5424V41.2939H57.5022V44.4305H60.7241ZM64.1144 39.3578C64.3277 39.3578 64.5561 39.381 64.7997 39.4275L64.7107 39.9028C64.5012 39.8468 64.2842 39.8188 64.0595 39.8188C63.6317 39.8188 63.2809 40.0155 63.007 40.4088C62.7319 40.8022 62.5944 41.2986 62.5944 41.8982V44.8996H62.1382V39.4623H62.5262L62.5717 40.4436H62.6038C62.8108 40.0435 63.031 39.7621 63.2645 39.5996C63.4992 39.4384 63.7825 39.3578 64.1144 39.3578ZM69.2085 44.8996H68.8696L68.7541 44.0391H68.7182C68.4658 44.3888 68.2058 44.6367 67.9383 44.7828C67.672 44.9276 67.3571 45 66.9937 45C66.5015 45 66.1178 44.8634 65.8427 44.5903C65.5689 44.3157 65.432 43.9367 65.432 43.4532C65.432 42.9233 65.6358 42.5115 66.0434 42.2178C66.4523 41.9255 67.0435 41.7705 67.8171 41.7528L68.7731 41.7241V41.3635C68.7731 40.8472 68.6759 40.4573 68.4815 40.1937C68.2885 39.9301 67.9761 39.7983 67.5445 39.7983C67.0788 39.7983 66.5968 39.9383 66.0983 40.2183L65.926 39.788C66.4775 39.5081 67.0227 39.3681 67.5616 39.3681C68.113 39.3681 68.5257 39.5231 68.7996 39.8331C69.0722 40.1432 69.2085 40.6267 69.2085 41.2836V44.8996ZM67.0221 44.5493C67.5584 44.5493 67.9812 44.3833 68.2904 44.0514C68.5995 43.7195 68.7541 43.2586 68.7541 42.6686V42.1338L67.8777 42.1728C67.171 42.2096 66.6674 42.3291 66.3671 42.5313C66.0667 42.7334 65.9166 43.0476 65.9166 43.4737C65.9166 43.8138 66.0131 44.0781 66.2062 44.2666C66.3993 44.455 66.6712 44.5493 67.0221 44.5493ZM77.4467 42.1728C77.4467 43.0605 77.248 43.7537 76.8504 44.2522C76.4529 44.7507 75.9046 45 75.2054 45C74.765 45 74.3769 44.8846 74.0412 44.6538C73.7056 44.4243 73.4481 44.0945 73.2689 43.6642C73.091 43.234 73.002 42.7368 73.002 42.1728C73.002 41.2863 73.2001 40.5952 73.5964 40.0995C73.9939 39.605 74.5397 39.3578 75.2338 39.3578C75.9241 39.3578 76.4655 39.6084 76.858 40.1097C77.2505 40.6123 77.4467 41.3 77.4467 42.1728ZM73.4809 42.1728C73.4809 42.9199 73.633 43.5031 73.9371 43.9224C74.24 44.3403 74.6691 44.5493 75.2244 44.5493C75.7784 44.5493 76.2074 44.3403 76.5116 43.9224C76.8145 43.5031 76.9659 42.9199 76.9659 42.1728C76.9659 41.4229 76.8126 40.8411 76.5059 40.4272C76.1992 40.0148 75.7689 39.8085 75.2149 39.8085C74.6609 39.8085 74.2331 40.0141 73.9314 40.4252C73.6311 40.8377 73.4809 41.4202 73.4809 42.1728ZM80.7045 39.4623V39.8925H79.5214V44.8996H79.0633V39.8925H78.1301V39.6037L79.0633 39.4172V38.9972C79.0633 38.3307 79.1769 37.8418 79.4041 37.5304C79.63 37.2176 80.0004 37.0612 80.5152 37.0612C80.7929 37.0612 81.0699 37.1063 81.3463 37.1964L81.2403 37.6266C80.9942 37.5433 80.7493 37.5017 80.5058 37.5017C80.1486 37.5017 79.8956 37.6157 79.7467 37.8438C79.5965 38.0733 79.5214 38.4448 79.5214 38.9583V39.4623H80.7045ZM87.9774 43.0148C87.9774 43.6239 87.7704 44.1074 87.3565 44.4653C86.9426 44.8218 86.3917 45 85.7039 45C84.8786 45 84.2457 44.9017 83.8053 44.705V44.1949C84.2924 44.4175 84.9133 44.5288 85.668 44.5288C86.222 44.5288 86.6618 44.3915 86.9874 44.117C87.3117 43.8425 87.4739 43.4812 87.4739 43.0332C87.4739 42.7573 87.4202 42.5286 87.313 42.3469C87.2044 42.1652 87.0284 41.9993 86.7848 41.8491C86.5425 41.6988 86.1854 41.537 85.7134 41.3635C85.0231 41.1067 84.546 40.8288 84.2823 40.5297C84.0198 40.2319 83.8885 39.8345 83.8885 39.3373C83.8885 38.791 84.0861 38.3451 84.4811 37.9995C84.8773 37.654 85.3865 37.4812 86.0087 37.4812C86.6435 37.4812 87.2398 37.6116 87.7976 37.8725L87.6272 38.313C87.0656 38.0589 86.5293 37.9319 86.0182 37.9319C85.5197 37.9319 85.1221 38.0569 84.8256 38.3068C84.5303 38.5568 84.3826 38.8969 84.3826 39.3271C84.3826 39.5975 84.428 39.8195 84.5189 39.9929C84.6098 40.1664 84.7587 40.3221 84.9657 40.46C85.1714 40.5993 85.5253 40.7653 86.0276 40.9579C86.5551 41.1545 86.9514 41.3458 87.2164 41.5315C87.4802 41.7159 87.6733 41.9255 87.7957 42.1605C87.9168 42.3954 87.9774 42.6802 87.9774 43.0148ZM90.6162 44.5595C90.9065 44.5595 91.1595 44.5329 91.3753 44.4796V44.8791C91.1532 44.9597 90.897 45 90.6067 45C90.1638 45 89.8363 44.8716 89.6243 44.6148C89.4135 44.3581 89.3082 43.9545 89.3082 43.404V39.8925H88.5642V39.6037L89.3082 39.3783L89.5391 38.147H89.7757V39.4623H91.2504V39.8925H89.7757V43.3344C89.7757 43.751 89.8432 44.059 89.9783 44.2584C90.1146 44.4591 90.3272 44.5595 90.6162 44.5595ZM94.4381 39.3578C94.6502 39.3578 94.878 39.381 95.1215 39.4275L95.0344 39.9028C94.825 39.8468 94.6079 39.8188 94.3833 39.8188C93.9542 39.8188 93.6027 40.0155 93.3289 40.4088C93.055 40.8022 92.9181 41.2986 92.9181 41.8982V44.8996H92.46V39.4623H92.848L92.8954 40.4436H92.9276C93.1333 40.0435 93.3535 39.7621 93.5882 39.5996C93.8217 39.4384 94.105 39.3578 94.4381 39.3578ZM98.1711 45C97.4417 45 96.8725 44.7562 96.4636 44.2686C96.056 43.7824 95.8522 43.1008 95.8522 42.224C95.8522 41.3567 96.0491 40.6622 96.4428 40.1404C96.8378 39.6187 97.3698 39.3578 98.0386 39.3578C98.6292 39.3578 99.0955 39.5811 99.4375 40.0277C99.7795 40.4744 99.9505 41.0815 99.9505 41.8491V42.2486H96.333C96.3393 42.9957 96.5002 43.5659 96.8157 43.9592C97.1312 44.3526 97.583 44.5493 98.1711 44.5493C98.4576 44.5493 98.71 44.5274 98.9283 44.4837C99.1454 44.4414 99.4199 44.3485 99.7518 44.2051V44.6538C99.4691 44.7876 99.2072 44.8784 98.9662 44.9262C98.7264 44.9754 98.4614 45 98.1711 45ZM98.0386 39.7983C97.554 39.7983 97.1653 39.9704 96.8725 40.3146C96.5797 40.6601 96.4087 41.158 96.3595 41.8081H99.4659C99.4659 41.1784 99.3397 40.6861 99.0873 40.331C98.8349 39.9758 98.4854 39.7983 98.0386 39.7983ZM104.725 44.8996H104.388L104.272 44.0391H104.234C103.982 44.3888 103.723 44.6367 103.456 44.7828C103.19 44.9276 102.875 45 102.512 45C102.018 45 101.635 44.8634 101.361 44.5903C101.086 44.3157 100.948 43.9367 100.948 43.4532C100.948 42.9233 101.153 42.5115 101.561 42.2178C101.969 41.9255 102.56 41.7705 103.333 41.7528L104.291 41.7241V41.3635C104.291 40.8472 104.194 40.4573 104 40.1937C103.805 39.9301 103.492 39.7983 103.061 39.7983C102.595 39.7983 102.113 39.9383 101.614 40.2183L101.444 39.788C101.996 39.5081 102.541 39.3681 103.08 39.3681C103.631 39.3681 104.043 39.5231 104.316 39.8331C104.588 40.1432 104.725 40.6267 104.725 41.2836V44.8996ZM102.538 44.5493C103.075 44.5493 103.497 44.3833 103.807 44.0514C104.117 43.7195 104.272 43.2586 104.272 42.6686V42.1338L103.394 42.1728C102.688 42.2096 102.186 42.3291 101.885 42.5313C101.585 42.7334 101.435 43.0476 101.435 43.4737C101.435 43.8138 101.531 44.0781 101.722 44.2666C101.915 44.455 102.187 44.5493 102.538 44.5493ZM107.678 44.5595C107.967 44.5595 108.219 44.5329 108.435 44.4796V44.8791C108.213 44.9597 107.957 45 107.668 45C107.224 45 106.897 44.8716 106.686 44.6148C106.475 44.3581 106.37 43.9545 106.37 43.404V39.8925H105.626V39.6037L106.37 39.3783L106.601 38.147H106.835V39.4623H108.31V39.8925H106.835V43.3344C106.835 43.751 106.903 44.059 107.04 44.2584C107.175 44.4591 107.387 44.5595 107.678 44.5595ZM119.346 37.5877L117.48 44.8996H117.09L115.607 39.2574C115.484 38.7944 115.391 38.414 115.329 38.1163C115.28 38.4072 115.21 38.7411 115.119 39.1181C115.028 39.4951 114.532 41.4222 113.629 44.8996H113.232L111.373 37.5877H111.869L113.052 42.2977C113.097 42.4889 113.14 42.6651 113.181 42.8263C113.221 42.9875 113.257 43.1391 113.288 43.2811C113.321 43.4232 113.351 43.5597 113.377 43.6909C113.404 43.8233 113.428 43.9558 113.449 44.0883C113.523 43.6349 113.68 42.9465 113.921 42.0232L115.075 37.5877H115.598L116.951 42.6788C117.109 43.2661 117.221 43.7394 117.288 44.0986C117.329 43.8595 117.38 43.6048 117.444 43.3344C117.507 43.064 117.982 41.1484 118.869 37.5877H119.346ZM122.451 45C121.721 45 121.152 44.7562 120.743 44.2686C120.335 43.7824 120.132 43.1008 120.132 42.224C120.132 41.3567 120.328 40.6622 120.722 40.1404C121.117 39.6187 121.649 39.3578 122.316 39.3578C122.908 39.3578 123.375 39.5811 123.717 40.0277C124.059 40.4744 124.23 41.0815 124.23 41.8491V42.2486H120.612C120.617 42.9957 120.778 43.5659 121.095 43.9592C121.411 44.3526 121.862 44.5493 122.451 44.5493C122.737 44.5493 122.989 44.5274 123.206 44.4837C123.424 44.4414 123.699 44.3485 124.031 44.2051V44.6538C123.748 44.7876 123.487 44.8784 123.246 44.9262C123.006 44.9754 122.741 45 122.451 45ZM122.316 39.7983C121.833 39.7983 121.445 39.9704 121.152 40.3146C120.859 40.6601 120.688 41.158 120.639 41.8081H123.745C123.745 41.1784 123.619 40.6861 123.367 40.331C123.113 39.9758 122.763 39.7983 122.316 39.7983ZM129.004 44.8996H128.667L128.552 44.0391H128.514C128.261 44.3888 128.002 44.6367 127.736 44.7828C127.469 44.9276 127.154 45 126.789 45C126.297 45 125.914 44.8634 125.64 44.5903C125.365 44.3157 125.228 43.9367 125.228 43.4532C125.228 42.9233 125.432 42.5115 125.841 42.2178C126.248 41.9255 126.839 41.7705 127.613 41.7528L128.569 41.7241V41.3635C128.569 40.8472 128.472 40.4573 128.279 40.1937C128.085 39.9301 127.772 39.7983 127.34 39.7983C126.874 39.7983 126.392 39.9383 125.894 40.2183L125.724 39.788C126.275 39.5081 126.82 39.3681 127.359 39.3681C127.911 39.3681 128.323 39.5231 128.595 39.8331C128.868 40.1432 129.004 40.6267 129.004 41.2836V44.8996ZM126.818 44.5493C127.354 44.5493 127.777 44.3833 128.086 44.0514C128.396 43.7195 128.552 43.2586 128.552 42.6686V42.1338L127.673 42.1728C126.968 42.2096 126.465 42.3291 126.165 42.5313C125.864 42.7334 125.714 43.0476 125.714 43.4737C125.714 43.8138 125.81 44.0781 126.002 44.2666C126.195 44.455 126.467 44.5493 126.818 44.5493ZM132.608 39.3578C132.82 39.3578 133.048 39.381 133.292 39.4275L133.205 39.9028C132.995 39.8468 132.778 39.8188 132.553 39.8188C132.124 39.8188 131.773 40.0155 131.499 40.4088C131.225 40.8022 131.088 41.2986 131.088 41.8982V44.8996H130.63V39.4623H131.018L131.066 40.4436H131.098C131.303 40.0435 131.524 39.7621 131.758 39.5996C131.992 39.4384 132.275 39.3578 132.608 39.3578Z" fill="white"/>
</g>
</g>
</g>
</g>
</g>
</g>
<defs>
<clipPath id="clip0_2501_2">
<rect width="169" height="45" fill="white"/>
</clipPath>
<clipPath id="clip1_2501_2">
<rect width="169" height="45" fill="white"/>
</clipPath>
<clipPath id="clip2_2501_2">
<rect width="169" height="45" fill="white"/>
</clipPath>
<clipPath id="clip3_2501_2">
<rect width="169" height="45" fill="white"/>
</clipPath>
<clipPath id="clip4_2501_2">
<rect width="169" height="29.9829" fill="white"/>
</clipPath>
<clipPath id="clip5_2501_2">
<rect width="169" height="29.9829" fill="white"/>
</clipPath>
<clipPath id="clip6_2501_2">
<rect width="104.442" height="7.9388" fill="white" transform="translate(32.279 37.0612)"/>
</clipPath>
<clipPath id="clip7_2501_2">
<rect width="97.6054" height="7.9388" fill="white" transform="translate(35.6973 37.0612)"/>
</clipPath>
</defs>
</svg>
