<svg width="169" height="45" viewBox="0 0 169 45" fill="none" xmlns="http://www.w3.org/2000/svg">
<g clip-path="url(#clip0_1409_2)">
<g clip-path="url(#clip1_1409_2)">
<g clip-path="url(#clip2_1409_2)">
<g clip-path="url(#clip3_1409_2)">
<path d="M32.279 38H0V40.7039H32.279V38Z" fill="white"/>
<path d="M169.279 38H137V40.7039H169.279V38Z" fill="white"/>
<g clip-path="url(#clip4_1409_2)">
<g clip-path="url(#clip5_1409_2)">
<path d="M10.1891 29.7424H7.00391L0.00390625 0.240504H3.04094L8.8928 25.3733L15.6335 0.240504H18.5965L25.3002 25.3733L31.1521 0.240504H34.1891L27.1891 29.7424H24.0039L17.115 4.68984L10.1891 29.7424ZM46.0039 29.9429C44.2755 29.9696 42.8434 29.681 41.7076 29.077C40.5718 28.4785 39.6829 27.5645 39.0409 26.3353C38.399 25.106 37.9422 23.5428 37.6706 21.6454C37.399 19.7481 37.2632 17.5034 37.2632 14.9113C37.2632 12.4261 37.4039 10.2482 37.6854 8.37759C37.9718 6.50699 38.4607 4.94906 39.1521 3.70377C39.8434 2.46384 40.7866 1.53656 41.9817 0.921934C43.1817 0.30731 44.6829 0 46.4854 0C47.4484 0 48.4484 0.0400823 49.4854 0.120251C50.5224 0.200419 51.5348 0.320672 52.5224 0.481009C53.5101 0.641345 54.4237 0.828405 55.2632 1.04219V3.44724C54.7693 3.36707 54.078 3.27888 53.1891 3.18268C52.3002 3.09182 51.3051 3.01967 50.2039 2.96622C49.1076 2.91278 48.0163 2.88606 46.9298 2.88606C45.1521 2.88606 43.7743 3.28155 42.7965 4.07255C41.8237 4.8582 41.1446 6.13822 40.7595 7.91261C40.3792 9.69235 40.1891 12.0386 40.1891 14.9514C40.1891 17.303 40.2928 19.2538 40.5002 20.8037C40.7125 22.3536 41.0656 23.5828 41.5595 24.4914C42.0533 25.4 42.7249 26.0467 43.5743 26.4315C44.4286 26.8216 45.5101 27.0167 46.8187 27.0167C47.9792 27.0167 49.1768 26.8564 50.4113 26.5357C51.6459 26.215 52.6953 25.8676 53.5595 25.4935V16.7953H46.9669V14.4303C47.436 14.3501 48.0039 14.2833 48.6706 14.2299C49.3372 14.1764 50.0459 14.1283 50.7965 14.0856C51.5521 14.0482 52.3126 14.0295 53.078 14.0295C53.72 14.0295 54.3249 14.0348 54.8928 14.0455C55.4607 14.0615 55.9545 14.1096 56.3743 14.1898V29.7424H54.2261L53.7817 27.6581C52.8928 28.1391 51.7619 28.6334 50.3891 29.1412C49.0212 29.6489 47.5595 29.9161 46.0039 29.9429ZM69.8558 29.9829C69.3126 29.9829 68.6632 29.9642 67.9076 29.9268C67.157 29.8841 66.3866 29.8306 65.5965 29.7665C64.8064 29.697 64.0582 29.6222 63.3521 29.542C62.6508 29.4618 62.0656 29.3683 61.5965 29.2614V26.8163C62.2138 26.8697 62.9669 26.9232 63.8558 26.9766C64.7447 27.0301 65.7002 27.0702 66.7224 27.0969C67.7496 27.1236 68.757 27.137 69.7447 27.137C70.8558 27.137 71.8558 27.0167 72.7447 26.7762C73.6335 26.5357 74.3422 26.0948 74.8706 25.4534C75.4039 24.8121 75.6706 23.8902 75.6706 22.6876V20.6834C75.6706 19.3206 75.3496 18.2837 74.7076 17.5729C74.0656 16.8674 73.0286 16.5147 71.5965 16.5147H68.6706C66.4237 16.5147 64.6632 15.9802 63.3891 14.9113C62.12 13.8424 61.4854 11.9985 61.4854 9.37969V7.69616C61.4854 4.91699 62.1768 2.9395 63.5595 1.7637C64.9422 0.587898 66.8928 0 69.4113 0C70.2014 0 71.0903 0.0454272 72.078 0.136285C73.0656 0.232487 74.0212 0.34205 74.9447 0.464975C75.873 0.582555 76.6459 0.708153 77.2632 0.841767V3.2869C76.1768 3.18001 74.9471 3.08648 73.5743 3.00631C72.2064 2.92614 70.9175 2.88606 69.7076 2.88606C68.5965 2.88606 67.6335 3.02502 66.8187 3.30293C66.0039 3.58619 65.3792 4.08057 64.9447 4.78605C64.515 5.49687 64.3002 6.50699 64.3002 7.81641V9.17927C64.3002 10.8094 64.6953 11.9317 65.4854 12.5463C66.2755 13.161 67.3743 13.4683 68.7817 13.4683H71.9298C73.436 13.4683 74.6706 13.7622 75.6335 14.3501C76.5965 14.938 77.3126 15.7451 77.7817 16.7712C78.2508 17.8027 78.4854 18.9865 78.4854 20.3227V22.6075C78.4854 24.5849 78.0953 26.1081 77.315 27.1771C76.5397 28.246 75.5027 28.9808 74.2039 29.3817C72.9101 29.7825 71.4607 29.9829 69.8558 29.9829ZM92.6261 29.7424H89.6632V3.12656H81.2558V0.240504H101.034V3.12656H92.6261V29.7424ZM114.145 29.9829C112.392 29.9829 110.856 29.8012 109.537 29.4378C108.214 29.0797 107.115 28.3929 106.241 27.3775C105.362 26.362 104.708 24.8655 104.278 22.888C103.843 20.9106 103.626 18.3185 103.626 15.1117C103.626 11.905 103.848 9.30487 104.293 7.31135C104.737 5.32317 105.404 3.79998 106.293 2.74175C107.182 1.68888 108.28 0.967362 109.589 0.57721C110.898 0.192402 112.416 0 114.145 0C115.922 0 117.473 0.192402 118.797 0.57721C120.115 0.967362 121.214 1.68888 122.093 2.74175C122.967 3.79998 123.614 5.32317 124.034 7.31135C124.453 9.30487 124.663 11.905 124.663 15.1117C124.663 18.3185 124.448 20.9106 124.019 22.888C123.584 24.8655 122.93 26.362 122.056 27.3775C121.177 28.3929 120.083 29.0797 118.774 29.4378C117.466 29.8012 115.922 29.9829 114.145 29.9829ZM114.145 27.137C115.527 27.137 116.7 26.99 117.663 26.696C118.626 26.4021 119.411 25.8329 120.019 24.9885C120.621 24.1494 121.058 22.9415 121.33 21.3649C121.601 19.7882 121.737 17.7038 121.737 15.1117C121.737 12.4127 121.597 10.2482 121.315 8.61809C121.029 6.988 120.584 5.75875 119.982 4.93035C119.374 4.10194 118.597 3.55413 117.648 3.2869C116.695 3.01967 115.527 2.88606 114.145 2.88606C112.861 2.88606 111.745 3.01967 110.797 3.2869C109.843 3.55413 109.053 4.10194 108.426 4.93035C107.794 5.75875 107.325 6.988 107.019 8.61809C106.708 10.2482 106.552 12.4127 106.552 15.1117C106.552 17.7038 106.683 19.7882 106.945 21.3649C107.201 22.9415 107.626 24.1494 108.219 24.9885C108.811 25.8329 109.597 26.4021 110.574 26.696C111.547 26.99 112.737 27.137 114.145 27.137ZM132.663 29.7424H129.7V0.240504H140.441C141.33 0.240504 142.194 0.352738 143.034 0.57721C143.873 0.807025 144.631 1.22925 145.308 1.84387C145.989 2.45849 146.527 3.33233 146.922 4.46537C147.317 5.60376 147.515 7.09489 147.515 8.93876C147.515 10.5421 147.355 11.8569 147.034 12.883C146.713 13.9145 146.293 14.7296 145.774 15.3282C145.256 15.9321 144.693 16.3757 144.085 16.659C143.483 16.9369 142.898 17.1293 142.33 17.2362L147.922 29.7424H144.922L139.626 17.6771C139.231 17.6771 138.737 17.6637 138.145 17.637C137.552 17.6103 136.922 17.5969 136.256 17.5969C135.589 17.5969 134.94 17.5836 134.308 17.5569C133.68 17.5301 133.132 17.5168 132.663 17.5168V29.7424ZM132.663 3.12656V15.0716H139.997C140.638 15.0716 141.231 14.9915 141.774 14.8311C142.317 14.6708 142.799 14.3688 143.219 13.9252C143.638 13.487 143.972 12.867 144.219 12.0653C144.466 11.2636 144.589 10.2215 144.589 8.93876C144.589 7.70952 144.466 6.71276 144.219 5.94849C143.972 5.18956 143.631 4.60166 143.197 4.18478C142.767 3.77325 142.28 3.49266 141.737 3.34302C141.194 3.19871 140.614 3.12656 139.997 3.12656H132.663ZM157.997 29.9028C157.404 29.9028 156.774 29.8413 156.108 29.7184C155.441 29.6008 154.811 29.355 154.219 28.9808C153.626 28.6067 153.145 28.0375 152.774 27.2733C152.404 26.5143 152.219 25.4802 152.219 24.1707V6.17296C152.219 5.02388 152.372 4.0672 152.678 3.30293C152.989 2.54401 153.404 1.94274 153.922 1.49915C154.441 1.06089 155.021 0.740219 155.663 0.537126C156.305 0.339378 156.947 0.240504 157.589 0.240504C159.12 0.267227 160.54 0.299294 161.848 0.336705C163.157 0.379462 164.397 0.422218 165.567 0.464975C166.742 0.502386 167.885 0.547817 168.997 0.601262V3.16665H158.33C157.367 3.16665 156.601 3.44724 156.034 4.00842C155.466 4.56959 155.182 5.4648 155.182 6.69405V13.6687L167.367 13.8691V16.3142L155.182 16.5147V23.4492C155.182 24.438 155.335 25.1862 155.641 25.6939C155.952 26.2017 156.367 26.5357 156.885 26.696C157.404 26.8564 157.935 26.9365 158.478 26.9365H168.997V29.5019C167.861 29.5821 166.668 29.6489 165.419 29.7024C164.174 29.7558 162.927 29.7959 161.678 29.8226C160.434 29.8493 159.206 29.8761 157.997 29.9028Z" fill="white"/>
</g>
</g>
<path d="M52.52 42H51.152L48.864 38.536V42H47.496V36.384H48.864L51.152 39.864V36.384H52.52V42ZM57.7996 39.696C57.7996 39.824 57.7916 39.9573 57.7756 40.096H54.6796C54.701 40.3733 54.789 40.5867 54.9436 40.736C55.1036 40.88 55.2983 40.952 55.5276 40.952C55.869 40.952 56.1063 40.808 56.2396 40.52H57.6956C57.621 40.8133 57.485 41.0773 57.2876 41.312C57.0956 41.5467 56.853 41.7307 56.5596 41.864C56.2663 41.9973 55.9383 42.064 55.5756 42.064C55.1383 42.064 54.749 41.9707 54.4076 41.784C54.0663 41.5973 53.7996 41.3307 53.6076 40.984C53.4156 40.6373 53.3196 40.232 53.3196 39.768C53.3196 39.304 53.413 38.8987 53.5996 38.552C53.7916 38.2053 54.0583 37.9387 54.3996 37.752C54.741 37.5653 55.133 37.472 55.5756 37.472C56.0076 37.472 56.3916 37.5627 56.7276 37.744C57.0636 37.9253 57.325 38.184 57.5116 38.52C57.7036 38.856 57.7996 39.248 57.7996 39.696ZM56.3996 39.336C56.3996 39.1013 56.3196 38.9147 56.1596 38.776C55.9996 38.6373 55.7996 38.568 55.5596 38.568C55.3303 38.568 55.1356 38.6347 54.9756 38.768C54.821 38.9013 54.725 39.0907 54.6876 39.336H56.3996ZM65.0093 37.536L63.8013 42H62.2893L61.5853 39.104L60.8573 42H59.3533L58.1373 37.536H59.5053L60.1373 40.728L60.8893 37.536H62.3373L63.0973 40.712L63.7213 37.536H65.0093ZM70.5296 37.48V38.616H72.3616V39.672H70.5296V40.904H72.6016V42H69.1616V36.384H72.6016V37.48H70.5296ZM74.9377 38.28C75.0977 38.0347 75.2977 37.8427 75.5377 37.704C75.7777 37.56 76.0444 37.488 76.3377 37.488V38.936H75.9617C75.6204 38.936 75.3644 39.0107 75.1937 39.16C75.0231 39.304 74.9377 39.56 74.9377 39.928V42H73.5697V37.536H74.9377V38.28ZM76.7996 39.76C76.7996 39.3013 76.885 38.8987 77.0556 38.552C77.2316 38.2053 77.469 37.9387 77.7676 37.752C78.0663 37.5653 78.3996 37.472 78.7676 37.472C79.0823 37.472 79.357 37.536 79.5916 37.664C79.8316 37.792 80.0156 37.96 80.1436 38.168V37.536H81.5116V42H80.1436V41.368C80.0103 41.576 79.8236 41.744 79.5836 41.872C79.349 42 79.0743 42.064 78.7596 42.064C78.397 42.064 78.0663 41.9707 77.7676 41.784C77.469 41.592 77.2316 41.3227 77.0556 40.976C76.885 40.624 76.7996 40.2187 76.7996 39.76ZM80.1436 39.768C80.1436 39.4267 80.0476 39.1573 79.8556 38.96C79.669 38.7627 79.4396 38.664 79.1676 38.664C78.8956 38.664 78.6636 38.7627 78.4716 38.96C78.285 39.152 78.1916 39.4187 78.1916 39.76C78.1916 40.1013 78.285 40.3733 78.4716 40.576C78.6636 40.7733 78.8956 40.872 79.1676 40.872C79.4396 40.872 79.669 40.7733 79.8556 40.576C80.0476 40.3787 80.1436 40.1093 80.1436 39.768ZM86.3886 42.064C85.9513 42.064 85.5566 41.9707 85.2046 41.784C84.858 41.5973 84.5833 41.3307 84.3806 40.984C84.1833 40.6373 84.0846 40.232 84.0846 39.768C84.0846 39.3093 84.186 38.9067 84.3886 38.56C84.5913 38.208 84.8686 37.9387 85.2206 37.752C85.5726 37.5653 85.9673 37.472 86.4046 37.472C86.842 37.472 87.2366 37.5653 87.5886 37.752C87.9406 37.9387 88.218 38.208 88.4206 38.56C88.6233 38.9067 88.7246 39.3093 88.7246 39.768C88.7246 40.2267 88.6206 40.632 88.4126 40.984C88.21 41.3307 87.93 41.5973 87.5726 41.784C87.2206 41.9707 86.826 42.064 86.3886 42.064ZM86.3886 40.88C86.65 40.88 86.8713 40.784 87.0526 40.592C87.2393 40.4 87.3326 40.1253 87.3326 39.768C87.3326 39.4107 87.242 39.136 87.0606 38.944C86.8846 38.752 86.666 38.656 86.4046 38.656C86.138 38.656 85.9166 38.752 85.7406 38.944C85.5646 39.1307 85.4766 39.4053 85.4766 39.768C85.4766 40.1253 85.562 40.4 85.7326 40.592C85.9086 40.784 86.1273 40.88 86.3886 40.88ZM91.7704 38.672H91.0344V42H89.6664V38.672H89.1704V37.536H89.6664V37.408C89.6664 36.8587 89.8237 36.4427 90.1384 36.16C90.453 35.872 90.9144 35.728 91.5224 35.728C91.6237 35.728 91.6984 35.7307 91.7464 35.736V36.896C91.485 36.88 91.301 36.9173 91.1944 37.008C91.0877 37.0987 91.0344 37.2613 91.0344 37.496V37.536H91.7704V38.672ZM96.3725 36.384C96.9645 36.384 97.4818 36.5013 97.9245 36.736C98.3672 36.9707 98.7085 37.3013 98.9485 37.728C99.1938 38.1493 99.3165 38.6373 99.3165 39.192C99.3165 39.7413 99.1938 40.2293 98.9485 40.656C98.7085 41.0827 98.3645 41.4133 97.9165 41.648C97.4738 41.8827 96.9592 42 96.3725 42H94.2685V36.384H96.3725ZM96.2845 40.816C96.8018 40.816 97.2045 40.6747 97.4925 40.392C97.7805 40.1093 97.9245 39.7093 97.9245 39.192C97.9245 38.6747 97.7805 38.272 97.4925 37.984C97.2045 37.696 96.8018 37.552 96.2845 37.552H95.6365V40.816H96.2845ZM104.369 39.696C104.369 39.824 104.361 39.9573 104.345 40.096H101.249C101.27 40.3733 101.358 40.5867 101.513 40.736C101.673 40.88 101.868 40.952 102.097 40.952C102.438 40.952 102.676 40.808 102.809 40.52H104.265C104.19 40.8133 104.054 41.0773 103.857 41.312C103.665 41.5467 103.422 41.7307 103.129 41.864C102.836 41.9973 102.508 42.064 102.145 42.064C101.708 42.064 101.318 41.9707 100.977 41.784C100.636 41.5973 100.369 41.3307 100.177 40.984C99.985 40.6373 99.889 40.232 99.889 39.768C99.889 39.304 99.9823 38.8987 100.169 38.552C100.361 38.2053 100.628 37.9387 100.969 37.752C101.31 37.5653 101.702 37.472 102.145 37.472C102.577 37.472 102.961 37.5627 103.297 37.744C103.633 37.9253 103.894 38.184 104.081 38.52C104.273 38.856 104.369 39.248 104.369 39.696ZM102.969 39.336C102.969 39.1013 102.889 38.9147 102.729 38.776C102.569 38.6373 102.369 38.568 102.129 38.568C101.9 38.568 101.705 38.6347 101.545 38.768C101.39 38.9013 101.294 39.0907 101.257 39.336H102.969ZM106.987 42.064C106.597 42.064 106.251 41.9973 105.947 41.864C105.643 41.7307 105.403 41.5493 105.227 41.32C105.051 41.0853 104.952 40.824 104.931 40.536H106.283C106.299 40.6907 106.371 40.816 106.499 40.912C106.627 41.008 106.784 41.056 106.971 41.056C107.141 41.056 107.272 41.024 107.363 40.96C107.459 40.8907 107.507 40.8027 107.507 40.696C107.507 40.568 107.44 40.4747 107.307 40.416C107.173 40.352 106.957 40.2827 106.659 40.208C106.339 40.1333 106.072 40.056 105.859 39.976C105.645 39.8907 105.461 39.76 105.307 39.584C105.152 39.4027 105.075 39.16 105.075 38.856C105.075 38.6 105.144 38.368 105.283 38.16C105.427 37.9467 105.635 37.7787 105.907 37.656C106.184 37.5333 106.512 37.472 106.891 37.472C107.451 37.472 107.891 37.6107 108.211 37.888C108.536 38.1653 108.723 38.5333 108.771 38.992H107.507C107.485 38.8373 107.416 38.7147 107.299 38.624C107.187 38.5333 107.037 38.488 106.851 38.488C106.691 38.488 106.568 38.52 106.483 38.584C106.397 38.6427 106.355 38.7253 106.355 38.832C106.355 38.96 106.421 39.056 106.555 39.12C106.693 39.184 106.907 39.248 107.195 39.312C107.525 39.3973 107.795 39.4827 108.003 39.568C108.211 39.648 108.392 39.7813 108.547 39.968C108.707 40.1493 108.789 40.3947 108.795 40.704C108.795 40.9653 108.72 41.2 108.571 41.408C108.427 41.6107 108.216 41.7707 107.939 41.888C107.667 42.0053 107.349 42.064 106.987 42.064ZM110.4 37.072C110.16 37.072 109.962 37.0027 109.808 36.864C109.658 36.72 109.584 36.544 109.584 36.336C109.584 36.1227 109.658 35.9467 109.808 35.808C109.962 35.664 110.16 35.592 110.4 35.592C110.634 35.592 110.826 35.664 110.976 35.808C111.13 35.9467 111.208 36.1227 111.208 36.336C111.208 36.544 111.13 36.72 110.976 36.864C110.826 37.0027 110.634 37.072 110.4 37.072ZM111.08 37.536V42H109.712V37.536H111.08ZM113.847 37.472C114.162 37.472 114.436 37.536 114.671 37.664C114.911 37.792 115.095 37.96 115.223 38.168V37.536H116.591V41.992C116.591 42.4027 116.508 42.7733 116.343 43.104C116.183 43.44 115.935 43.7067 115.599 43.904C115.268 44.1013 114.855 44.2 114.359 44.2C113.698 44.2 113.162 44.0427 112.751 43.728C112.34 43.4187 112.106 42.9973 112.047 42.464H113.399C113.442 42.6347 113.543 42.768 113.703 42.864C113.863 42.9653 114.06 43.016 114.295 43.016C114.578 43.016 114.802 42.9333 114.967 42.768C115.138 42.608 115.223 42.3493 115.223 41.992V41.36C115.09 41.568 114.906 41.7387 114.671 41.872C114.436 42 114.162 42.064 113.847 42.064C113.479 42.064 113.146 41.9707 112.847 41.784C112.548 41.592 112.311 41.3227 112.135 40.976C111.964 40.624 111.879 40.2187 111.879 39.76C111.879 39.3013 111.964 38.8987 112.135 38.552C112.311 38.2053 112.548 37.9387 112.847 37.752C113.146 37.5653 113.479 37.472 113.847 37.472ZM115.223 39.768C115.223 39.4267 115.127 39.1573 114.935 38.96C114.748 38.7627 114.519 38.664 114.247 38.664C113.975 38.664 113.743 38.7627 113.551 38.96C113.364 39.152 113.271 39.4187 113.271 39.76C113.271 40.1013 113.364 40.3733 113.551 40.576C113.743 40.7733 113.975 40.872 114.247 40.872C114.519 40.872 114.748 40.7733 114.935 40.576C115.127 40.3787 115.223 40.1093 115.223 39.768ZM120.381 37.488C120.903 37.488 121.319 37.6587 121.629 38C121.943 38.336 122.101 38.8 122.101 39.392V42H120.741V39.576C120.741 39.2773 120.663 39.0453 120.509 38.88C120.354 38.7147 120.146 38.632 119.885 38.632C119.623 38.632 119.415 38.7147 119.261 38.88C119.106 39.0453 119.029 39.2773 119.029 39.576V42H117.661V37.536H119.029V38.128C119.167 37.9307 119.354 37.776 119.589 37.664C119.823 37.5467 120.087 37.488 120.381 37.488Z" fill="white"/>
</g>
</g>
</g>
</g>
<defs>
<clipPath id="clip0_1409_2">
<rect width="169" height="45" fill="white"/>
</clipPath>
<clipPath id="clip1_1409_2">
<rect width="169" height="45" fill="white"/>
</clipPath>
<clipPath id="clip2_1409_2">
<rect width="169" height="45" fill="white"/>
</clipPath>
<clipPath id="clip3_1409_2">
<rect width="169" height="45" fill="white"/>
</clipPath>
<clipPath id="clip4_1409_2">
<rect width="169" height="29.9829" fill="white"/>
</clipPath>
<clipPath id="clip5_1409_2">
<rect width="169" height="29.9829" fill="white"/>
</clipPath>
</defs>
</svg>
