<?xml version="1.0" encoding="utf-8"?><svg viewBox="0 0 395.52 97.31" xmlns="http://www.w3.org/2000/svg" xmlns:xlink="http://www.w3.org/1999/xlink"><style>:root>svg{display:none}:root>svg:target{display:block}</style><svg viewBox="0 0 395.52 97.31" id="icon"><svg height="97.31" width="395.52"><svg height="97.31" width="395.52"><svg height="97.31" width="395.52"><path data-fill-palette-color="tertiary" d="M0 85.803h75.544v5.847H0zm319.976 0h75.544v5.847h-75.544z" fill="#30017e"/><svg height="64.837" width="395.52"><svg width="395.52" viewBox="1.7 -37.1 228.14 37.4" height="64.837" data-palette-color="#30017e"><path d="M15.45 0h-4.3L1.7-36.8h4.1l7.9 31.35 9.1-31.35h4l9.05 31.35 7.9-31.35h4.1L38.4 0h-4.3l-9.3-31.25L15.45 0zM63.8.25Q60.3.3 58-.83q-2.3-1.12-3.6-3.42-1.3-2.3-1.85-5.85T52-18.5q0-4.65.57-8.15.58-3.5 1.98-5.83 1.4-2.32 3.82-3.47 2.43-1.15 6.08-1.15 1.95 0 4.05.15 2.1.15 4.1.45 2 .3 3.7.7v3q-1-.15-2.8-.33-1.8-.17-4.03-.27-2.22-.1-4.42-.1-3.6 0-5.58 1.48-1.97 1.47-2.75 4.79-.77 3.33-.77 8.78 0 4.4.42 7.3.43 2.9 1.43 4.6 1 1.7 2.72 2.42 1.73.73 4.38.73 2.35 0 4.85-.6 2.5-.6 4.25-1.3v-10.85h-8.9v-2.95q.95-.15 2.3-.25 1.35-.1 2.87-.18 1.53-.07 3.08-.07 1.3 0 2.45.02 1.15.03 2 .18V0h-2.9l-.6-2.6q-1.8.9-4.58 1.85-2.77.95-5.92 1zM96 .3q-1.1 0-2.63-.07-1.52-.08-3.12-.2-1.6-.13-3.03-.28Q85.8-.4 84.85-.6v-3.05q1.25.1 3.05.2 1.8.1 3.87.15 2.08.05 4.08.05 2.25 0 4.05-.45 1.8-.45 2.87-1.65 1.08-1.2 1.08-3.45v-2.5q0-2.55-1.3-3.88-1.3-1.32-4.2-1.32H94.4q-4.55 0-7.13-2-2.57-2-2.57-6.9v-2.1q0-5.2 2.8-7.4t7.9-2.2q1.6 0 3.6.17 2 .18 3.87.41 1.88.22 3.13.47V-33q-2.2-.2-4.98-.35-2.77-.15-5.22-.15-2.25 0-3.9.52-1.65.53-2.53 1.85-.87 1.33-.87 3.78v1.7q0 3.05 1.6 4.2 1.6 1.15 4.45 1.15h4.25q3.05 0 5 1.1 1.95 1.1 2.9 3.02.95 1.93.95 4.43v2.85q0 3.7-1.58 5.7-1.57 2-4.2 2.75Q99.25.3 96 .3zm30.74-.3h-4v-33.2h-11.35v-3.6h26.7v3.6h-11.35V0zm29.05.3q-3.55 0-6.22-.68-2.68-.67-4.45-2.57-1.78-1.9-2.65-5.6-.88-3.7-.88-9.7 0-6 .9-9.73.9-3.72 2.7-5.7 1.8-1.97 4.45-2.7 2.65-.72 6.15-.72 3.6 0 6.28.72 2.67.73 4.45 2.7 1.77 1.98 2.62 5.7.85 3.73.85 9.73t-.87 9.7q-.88 3.7-2.65 5.6-1.78 1.9-4.43 2.57-2.65.68-6.25.68zm0-3.55q2.8 0 4.75-.55 1.95-.55 3.18-2.13 1.22-1.57 1.77-4.52.55-2.95.55-7.8 0-5.05-.57-8.1-.58-3.05-1.8-4.6-1.23-1.55-3.15-2.05-1.93-.5-4.73-.5-2.6 0-4.52.5-1.93.5-3.2 2.05-1.28 1.55-1.9 4.6-.63 3.05-.63 8.1 0 4.85.53 7.8.52 2.95 1.72 4.52 1.2 1.58 3.18 2.13 1.97.55 4.82.55zm25 3.25h-4v-36.8h14.5q1.8 0 3.5.42 1.7.43 3.07 1.58 1.38 1.15 2.18 3.27.8 2.13.8 5.58 0 3-.65 4.92-.65 1.93-1.7 3.05-1.05 1.13-2.28 1.66-1.22.52-2.37.72L201.39 0h-4.05l-7.15-15.05q-.8 0-2-.05t-2.55-.05q-1.35 0-2.63-.05-1.27-.05-2.22-.05V0zm0-33.2v14.9h9.9q1.3 0 2.4-.3 1.1-.3 1.95-1.13.85-.82 1.35-2.32.5-1.5.5-3.9 0-2.3-.5-3.73-.5-1.42-1.38-2.2-.87-.77-1.97-1.05-1.1-.27-2.35-.27h-9.9zM214.99.2q-1.2 0-2.55-.23-1.35-.22-2.55-.92-1.2-.7-1.95-2.13-.75-1.42-.75-3.87V-29.4q0-2.15.62-3.58.63-1.42 1.68-2.25 1.05-.82 2.35-1.2 1.3-.37 2.6-.37 3.1.05 5.75.12 2.65.08 5.02.16 2.38.07 4.63.17v3.2h-14.4q-1.95 0-3.1 1.05-1.15 1.05-1.15 3.35v8.7l16.45.25v3.05l-16.45.25v8.65q0 1.85.62 2.8.63.95 1.68 1.25 1.05.3 2.15.3h14.2v3.2q-2.3.15-4.83.25-2.52.1-5.05.15l-4.97.1z" fill="#30017e" class="aundefined-text-0" data-fill-palette-color="primary"/></svg></svg><svg height="17.167" width="244.431" transform="translate(75.544 80.143)"><svg width="228.431" viewBox="5.05 -38.26 515.5 38.75" height="17.167" data-palette-color="#96a2fb" transform="translate(8)"><path d="M31.01-35.69V0h-2.52L7.35-31.69h-.2q.3 5.66.3 8.55V0h-2.4v-35.69h2.49L28.66-4.05h.15q-.22-4.4-.22-8.35v-23.29h2.42zM51.22.49q-5.79 0-9.02-3.57-3.24-3.56-3.24-9.98 0-6.35 3.13-10.17 3.12-3.82 8.42-3.82 4.69 0 7.4 3.27t2.71 8.89v1.95H41.5q.05 5.47 2.55 8.35 2.51 2.88 7.17 2.88 2.27 0 3.99-.32 1.72-.31 4.36-1.36v2.19q-2.25.98-4.15 1.33-1.91.36-4.2.36zm-.71-25.39q-3.83 0-6.15 2.52-2.32 2.53-2.71 7.29h16.4q0-4.61-2-7.21-2-2.6-5.54-2.6zM91.69 0h-2.53l-5.82-17.75q-.56-1.81-1.44-5.3h-.14l-.51 1.81-1.1 3.54L74.24 0h-2.39l-7.6-26.54h2.59l4.25 15.38q1.49 5.72 1.95 8.4h.15q1.44-5.71 2.1-7.59l5.47-16.19h2.19l5.2 16.14q1.76 5.74 2.15 7.59h.15q.19-1.58 1.95-8.49l4.05-15.24h2.45L91.69 0zm45.51-2.29V0h-19.51v-35.69h19.51v2.29h-17.02v13.5h16.06v2.3h-16.06v15.31h17.02zm17.91-24.76q1.69 0 3.62.34l-.47 2.32q-1.66-.41-3.44-.41-3.39 0-5.56 2.88-2.18 2.88-2.18 7.27V0h-2.41v-26.54h2.05l.24 4.79h.17q1.64-2.93 3.49-4.12 1.86-1.18 4.49-1.18zM182.02 0h-1.79l-.61-4.2h-.19q-2 2.56-4.12 3.63Q173.2.49 170.32.49q-3.9 0-6.08-2-2.17-2.01-2.17-5.55 0-3.88 3.23-6.03 3.24-2.14 9.37-2.27l5.05-.14v-1.76q0-3.78-1.54-5.71-1.53-1.93-4.95-1.93-3.69 0-7.64 2.05l-.91-2.1q4.37-2.05 8.64-2.05 4.37 0 6.54 2.27 2.16 2.27 2.16 7.08V0zm-11.55-1.71q4.25 0 6.7-2.43t2.45-6.75v-2.61l-4.63.19q-5.6.27-7.98 1.75-2.38 1.48-2.38 4.6 0 2.49 1.53 3.87t4.31 1.38zm55.07-11.6q0 6.5-3.15 10.15Q219.24.49 213.7.49q-3.49 0-6.15-1.69-2.66-1.68-4.08-4.83-1.41-3.15-1.41-7.28 0-6.49 3.14-10.12 3.15-3.62 8.65-3.62 5.47 0 8.58 3.67 3.11 3.68 3.11 10.07zm-20.95 0q0 5.47 2.41 8.54 2.4 3.06 6.8 3.06 4.39 0 6.8-3.06 2.4-3.07 2.4-8.54 0-5.49-2.43-8.52-2.43-3.02-6.82-3.02-4.39 0-6.78 3.01-2.38 3.02-2.38 8.53zm38.16-13.23v2.1h-6.25V0h-2.42v-24.44h-4.93v-1.41l4.93-.91v-2.05q0-4.88 1.8-7.16 1.79-2.29 5.87-2.29 2.2 0 4.39.66l-.56 2.1q-1.95-.61-3.88-.61-2.83 0-4.01 1.67-1.19 1.68-1.19 5.44v2.46h6.25zM281.17-9.2q0 4.46-3.28 7.08-3.28 2.61-8.73 2.61-6.54 0-10.03-1.44v-2.49q3.86 1.63 9.84 1.63 4.39 0 6.97-2.01 2.57-2.01 2.57-5.29 0-2.02-.85-3.35-.86-1.33-2.79-2.43-1.92-1.1-5.66-2.37-5.47-1.88-7.56-4.07-2.08-2.18-2.08-5.82 0-4 3.13-6.53 3.14-2.53 8.07-2.53 5.03 0 9.45 1.91l-.9 2.15q-4.45-1.86-8.5-1.86-3.95 0-6.3 1.83-2.34 1.83-2.34 4.98 0 1.98.72 3.25t2.36 2.28q1.63 1.02 5.61 2.43 4.18 1.44 6.28 2.8 2.09 1.35 3.06 3.07.96 1.72.96 4.17zm13.94 7.54q2.3 0 4.01-.39V-.1q-1.76.59-4.06.59-3.51 0-5.19-1.88-1.67-1.88-1.67-5.91v-17.14h-3.93v-1.41l3.93-1.1 1.22-6.01h1.25v6.42h7.79v2.1h-7.79v16.8q0 3.05 1.07 4.51 1.08 1.47 3.37 1.47zm20.19-25.39q1.68 0 3.61.34l-.46 2.32q-1.66-.41-3.44-.41-3.4 0-5.57 2.88-2.17 2.88-2.17 7.27V0h-2.42v-26.54h2.05l.25 4.79h.17q1.63-2.93 3.49-4.12 1.85-1.18 4.49-1.18zM335.02.49q-5.78 0-9.02-3.57-3.23-3.56-3.23-9.98 0-6.35 3.12-10.17 3.13-3.82 8.43-3.82 4.68 0 7.39 3.27t2.71 8.89v1.95h-19.11q.05 5.47 2.55 8.35t7.16 2.88q2.27 0 4-.32 1.72-.31 4.35-1.36v2.19q-2.24.98-4.15 1.33-1.9.36-4.2.36zm-.7-25.39q-3.84 0-6.16 2.52-2.32 2.53-2.71 7.29h16.41q0-4.61-2-7.21-2-2.6-5.54-2.6zM369.64 0h-1.78l-.61-4.2h-.2q-2 2.56-4.11 3.63-2.11 1.06-4.99 1.06-3.91 0-6.08-2-2.18-2.01-2.18-5.55 0-3.88 3.24-6.03 3.23-2.14 9.36-2.27l5.06-.14v-1.76q0-3.78-1.54-5.71-1.54-1.93-4.96-1.93-3.69 0-7.64 2.05l-.9-2.1q4.37-2.05 8.64-2.05 4.37 0 6.53 2.27t2.16 7.08V0zm-11.55-1.71q4.25 0 6.7-2.43 2.46-2.43 2.46-6.75v-2.61l-4.64.19q-5.59.27-7.97 1.75t-2.38 4.6q0 2.49 1.52 3.87 1.53 1.38 4.31 1.38zm27.15.05q2.29 0 4-.39V-.1q-1.76.59-4.05.59-3.52 0-5.19-1.88-1.67-1.88-1.67-5.91v-17.14h-3.93v-1.41l3.93-1.1 1.22-6.01h1.24v6.42h7.79v2.1h-7.79v16.8q0 3.05 1.08 4.51 1.07 1.47 3.37 1.47zm61.64-34.03L437.02 0h-2.06l-7.83-27.54q-.98-3.39-1.47-5.57-.39 2.13-1.11 4.89-.72 2.76-7.87 28.22h-2.1l-9.82-35.69h2.62l6.25 22.99q.36 1.4.68 2.58.32 1.18.57 2.22.26 1.04.47 2 .21.97.38 1.94.58-3.32 2.49-10.08l6.1-21.65h2.76l7.15 24.85q1.25 4.3 1.78 6.93.32-1.75.82-3.73.5-1.98 7.53-28.05h2.52zM463.28.49q-5.78 0-9.02-3.57-3.23-3.56-3.23-9.98 0-6.35 3.12-10.17 3.13-3.82 8.42-3.82 4.69 0 7.4 3.27t2.71 8.89v1.95h-19.11q.04 5.47 2.55 8.35 2.5 2.88 7.16 2.88 2.27 0 3.99-.32 1.73-.31 4.36-1.36v2.19q-2.24.98-4.15 1.33-1.9.36-4.2.36zm-.71-25.39q-3.83 0-6.15 2.52-2.32 2.53-2.71 7.29h16.41q0-4.61-2-7.21-2.01-2.6-5.55-2.6zM497.9 0h-1.78l-.61-4.2h-.2q-2 2.56-4.11 3.63-2.11 1.06-5 1.06-3.9 0-6.07-2-2.18-2.01-2.18-5.55 0-3.88 3.24-6.03 3.23-2.14 9.36-2.27l5.05-.14v-1.76q0-3.78-1.53-5.71-1.54-1.93-4.96-1.93-3.69 0-7.64 2.05l-.9-2.1q4.37-2.05 8.64-2.05 4.37 0 6.53 2.27t2.16 7.08V0zm-11.55-1.71q4.25 0 6.7-2.43 2.46-2.43 2.46-6.75v-2.61l-4.64.19q-5.59.27-7.97 1.75t-2.38 4.6q0 2.49 1.52 3.87 1.53 1.38 4.31 1.38zm30.59-25.34q1.68 0 3.61.34l-.46 2.32q-1.66-.41-3.44-.41-3.4 0-5.57 2.88-2.17 2.88-2.17 7.27V0h-2.42v-26.54h2.05l.25 4.79h.17q1.63-2.93 3.49-4.12 1.85-1.18 4.49-1.18z" fill="#96a2fb" class="aundefined-text-1" data-fill-palette-color="secondary"/></svg></svg></svg></svg></svg></svg><svg viewBox="0 0 64 64" stroke-width="3" fill="none" id="person" xmlns="http://www.w3.org/2000/svg"><circle cx="32" cy="18.14" r="11.14"/><path d="M54.55 56.85A22.55 22.55 0 0032 34.3 22.55 22.55 0 009.45 56.85z"/></svg></svg>